<mxfile host="Electron" modified="2024-07-02T06:53:21.468Z" agent="Mozilla/5.0 (Windows NT 10.0; Win64; x64) AppleWebKit/537.36 (KHTML, like Gecko) draw.io/23.1.5 Chrome/120.0.6099.109 Electron/28.1.0 Safari/537.36" etag="QhU26wo_pfcKK-M9mBg7" version="23.1.5" type="device">
  <diagram name="Seite-1" id="PbfbO2oNK2rImo2w9HeD">
    <mxGraphModel dx="1185" dy="683" grid="1" gridSize="10" guides="1" tooltips="1" connect="1" arrows="1" fold="1" page="1" pageScale="1" pageWidth="827" pageHeight="1169" math="0" shadow="0">
      <root>
        <mxCell id="0" />
        <mxCell id="1" parent="0" />
        <mxCell id="ClA0qWIxO_GTXeQiMXhJ-1" value="Start" style="rounded=1;whiteSpace=wrap;html=1;absoluteArcSize=1;arcSize=14;strokeWidth=2;" parent="1" vertex="1">
          <mxGeometry x="325" y="40" width="200" height="30" as="geometry" />
        </mxCell>
        <mxCell id="ClA0qWIxO_GTXeQiMXhJ-3" value="" style="endArrow=classic;html=1;rounded=0;exitX=0.5;exitY=1;exitDx=0;exitDy=0;entryX=0.5;entryY=0;entryDx=0;entryDy=0;" parent="1" source="ClA0qWIxO_GTXeQiMXhJ-1" target="i3hiYTmnn7HbUoD9lcYK-1" edge="1">
          <mxGeometry width="50" height="50" relative="1" as="geometry">
            <mxPoint x="440" y="620" as="sourcePoint" />
            <mxPoint x="530" y="100" as="targetPoint" />
          </mxGeometry>
        </mxCell>
        <mxCell id="ClA0qWIxO_GTXeQiMXhJ-5" value="" style="endArrow=classic;html=1;rounded=0;entryX=0.5;entryY=0;entryDx=0;entryDy=0;exitX=0.5;exitY=1;exitDx=0;exitDy=0;" parent="1" target="i3hiYTmnn7HbUoD9lcYK-8" edge="1" source="i3hiYTmnn7HbUoD9lcYK-1">
          <mxGeometry width="50" height="50" relative="1" as="geometry">
            <mxPoint x="425" y="260" as="sourcePoint" />
            <mxPoint x="425" y="260" as="targetPoint" />
          </mxGeometry>
        </mxCell>
        <mxCell id="i3hiYTmnn7HbUoD9lcYK-1" value="&lt;font style=&quot;font-size: 14px;&quot;&gt;&lt;b style=&quot;&quot;&gt;&lt;font style=&quot;&quot; face=&quot;Verdana&quot;&gt;Setup();&lt;/font&gt;&lt;/b&gt;&lt;br&gt;&lt;/font&gt;&lt;code&gt;&lt;font style=&quot;font-size: 12px;&quot; face=&quot;Verdana&quot;&gt;Initialisierung von Pin-Modi und Serieller Kommunikation&lt;br&gt;LoRa-Modul aktivieren&lt;br&gt;DHT-Sensor initialisieren&lt;br&gt;Threads definieren und ihren Intervallen zuweisen&lt;br&gt;Threads zum Controller hinzufügen&lt;/font&gt;&lt;br&gt;&lt;/code&gt;" style="rounded=0;whiteSpace=wrap;html=1;" parent="1" vertex="1">
          <mxGeometry x="250" y="90" width="350" height="100" as="geometry" />
        </mxCell>
        <mxCell id="i3hiYTmnn7HbUoD9lcYK-8" value="&lt;b&gt;Loop();&lt;/b&gt;&lt;br&gt;&lt;font face=&quot;Verdana&quot;&gt;controller.run()&lt;br&gt;Alle Threads werden ausgeführt&lt;/font&gt;&amp;nbsp;" style="rounded=0;whiteSpace=wrap;html=1;" parent="1" vertex="1">
          <mxGeometry x="285" y="210" width="280" height="60" as="geometry" />
        </mxCell>
        <mxCell id="i3hiYTmnn7HbUoD9lcYK-40" value="&lt;b&gt;&lt;font style=&quot;font-size: 10px;&quot;&gt;pumpControllThread&lt;/font&gt;&lt;/b&gt;" style="rounded=0;whiteSpace=wrap;html=1;" parent="1" vertex="1">
          <mxGeometry x="64.66000000000003" y="90" width="100" height="40" as="geometry" />
        </mxCell>
        <mxCell id="i3hiYTmnn7HbUoD9lcYK-45" value="" style="endArrow=classic;html=1;rounded=0;exitX=0.5;exitY=1;exitDx=0;exitDy=0;" parent="1" source="i3hiYTmnn7HbUoD9lcYK-56" target="i3hiYTmnn7HbUoD9lcYK-59" edge="1">
          <mxGeometry width="50" height="50" relative="1" as="geometry">
            <mxPoint x="274.3700000000001" y="390" as="sourcePoint" />
            <mxPoint x="265" y="380" as="targetPoint" />
          </mxGeometry>
        </mxCell>
        <mxCell id="i3hiYTmnn7HbUoD9lcYK-47" value="" style="endArrow=classic;html=1;rounded=0;exitX=1;exitY=0.5;exitDx=0;exitDy=0;entryX=0;entryY=0.5;entryDx=0;entryDy=0;" parent="1" source="i3hiYTmnn7HbUoD9lcYK-53" edge="1" target="i3hiYTmnn7HbUoD9lcYK-56">
          <mxGeometry width="50" height="50" relative="1" as="geometry">
            <mxPoint x="234.66000000000008" y="370" as="sourcePoint" />
            <mxPoint x="214.66000000000008" y="370" as="targetPoint" />
          </mxGeometry>
        </mxCell>
        <mxCell id="i3hiYTmnn7HbUoD9lcYK-48" value="" style="endArrow=classic;html=1;rounded=0;entryX=0.5;entryY=0;entryDx=0;entryDy=0;exitX=0.5;exitY=1;exitDx=0;exitDy=0;" parent="1" edge="1" target="i3hiYTmnn7HbUoD9lcYK-53" source="i3hiYTmnn7HbUoD9lcYK-52">
          <mxGeometry width="50" height="50" relative="1" as="geometry">
            <mxPoint x="115" y="290" as="sourcePoint" />
            <mxPoint x="115" y="330" as="targetPoint" />
          </mxGeometry>
        </mxCell>
        <mxCell id="i3hiYTmnn7HbUoD9lcYK-49" value="" style="endArrow=classic;html=1;rounded=0;entryX=0.5;entryY=0;entryDx=0;entryDy=0;exitX=0.5;exitY=1;exitDx=0;exitDy=0;" parent="1" edge="1" target="i3hiYTmnn7HbUoD9lcYK-52" source="i3hiYTmnn7HbUoD9lcYK-51">
          <mxGeometry width="50" height="50" relative="1" as="geometry">
            <mxPoint x="114.37000000000012" y="220" as="sourcePoint" />
            <mxPoint x="114.37000000000012" y="260" as="targetPoint" />
          </mxGeometry>
        </mxCell>
        <mxCell id="i3hiYTmnn7HbUoD9lcYK-50" value="" style="endArrow=classic;html=1;rounded=0;entryX=0.5;entryY=0;entryDx=0;entryDy=0;exitX=0.5;exitY=1;exitDx=0;exitDy=0;" parent="1" edge="1" target="i3hiYTmnn7HbUoD9lcYK-51" source="i3hiYTmnn7HbUoD9lcYK-40">
          <mxGeometry width="50" height="50" relative="1" as="geometry">
            <mxPoint x="114" y="150" as="sourcePoint" />
            <mxPoint x="113.75000000000011" y="170" as="targetPoint" />
          </mxGeometry>
        </mxCell>
        <mxCell id="i3hiYTmnn7HbUoD9lcYK-51" value="LoRa-Modul deaktiviert" style="rounded=0;whiteSpace=wrap;html=1;" parent="1" vertex="1">
          <mxGeometry x="64.66" y="150" width="98.75" height="40" as="geometry" />
        </mxCell>
        <mxCell id="i3hiYTmnn7HbUoD9lcYK-52" value="Bodenfeuchtigkeit messen" style="rounded=0;whiteSpace=wrap;html=1;" parent="1" vertex="1">
          <mxGeometry x="64.66000000000003" y="210" width="98.75" height="40" as="geometry" />
        </mxCell>
        <mxCell id="c2nRYrLW-MGsJN68Fn51-2" value="" style="edgeStyle=orthogonalEdgeStyle;rounded=0;orthogonalLoop=1;jettySize=auto;html=1;" edge="1" parent="1" source="i3hiYTmnn7HbUoD9lcYK-53" target="c2nRYrLW-MGsJN68Fn51-1">
          <mxGeometry relative="1" as="geometry" />
        </mxCell>
        <mxCell id="i3hiYTmnn7HbUoD9lcYK-53" value="Feuchtigkeit &amp;lt; 70" style="rhombus;whiteSpace=wrap;html=1;" parent="1" vertex="1">
          <mxGeometry x="53.720000000000084" y="270" width="120.62" height="80" as="geometry" />
        </mxCell>
        <mxCell id="i3hiYTmnn7HbUoD9lcYK-54" value="Ja" style="text;html=1;align=center;verticalAlign=middle;resizable=0;points=[];autosize=1;strokeColor=none;fillColor=none;" parent="1" vertex="1">
          <mxGeometry x="163.41000000000008" y="280" width="40" height="30" as="geometry" />
        </mxCell>
        <mxCell id="i3hiYTmnn7HbUoD9lcYK-56" value="Pumpe Einschalten&amp;nbsp;&lt;br&gt;für 2 Sekunden" style="rounded=0;whiteSpace=wrap;html=1;" parent="1" vertex="1">
          <mxGeometry x="204.66000000000008" y="290" width="120" height="40" as="geometry" />
        </mxCell>
        <mxCell id="i3hiYTmnn7HbUoD9lcYK-59" value="5 Sekungen warten" style="rounded=0;whiteSpace=wrap;html=1;" parent="1" vertex="1">
          <mxGeometry x="204.66000000000008" y="350" width="120" height="30" as="geometry" />
        </mxCell>
        <mxCell id="i3hiYTmnn7HbUoD9lcYK-63" value="" style="endArrow=classic;html=1;rounded=0;exitX=0.5;exitY=1;exitDx=0;exitDy=0;entryX=0.5;entryY=0;entryDx=0;entryDy=0;" parent="1" source="i3hiYTmnn7HbUoD9lcYK-59" target="c2nRYrLW-MGsJN68Fn51-5" edge="1">
          <mxGeometry width="50" height="50" relative="1" as="geometry">
            <mxPoint x="284.6600000000001" y="450" as="sourcePoint" />
            <mxPoint x="265" y="440" as="targetPoint" />
          </mxGeometry>
        </mxCell>
        <mxCell id="i3hiYTmnn7HbUoD9lcYK-66" value="&lt;strong&gt;Ende&lt;/strong&gt;" style="ellipse;whiteSpace=wrap;html=1;" parent="1" vertex="1">
          <mxGeometry x="87.79000000000008" y="700" width="53.75" height="40" as="geometry" />
        </mxCell>
        <mxCell id="c2nRYrLW-MGsJN68Fn51-15" style="edgeStyle=orthogonalEdgeStyle;rounded=0;orthogonalLoop=1;jettySize=auto;html=1;entryX=0.5;entryY=0;entryDx=0;entryDy=0;" edge="1" parent="1" source="c2nRYrLW-MGsJN68Fn51-1" target="c2nRYrLW-MGsJN68Fn51-4">
          <mxGeometry relative="1" as="geometry" />
        </mxCell>
        <mxCell id="c2nRYrLW-MGsJN68Fn51-1" value="5 Sekunden warten&amp;nbsp;" style="whiteSpace=wrap;html=1;" vertex="1" parent="1">
          <mxGeometry x="53.720000000000084" y="540" width="120" height="60" as="geometry" />
        </mxCell>
        <mxCell id="c2nRYrLW-MGsJN68Fn51-16" value="" style="edgeStyle=orthogonalEdgeStyle;rounded=0;orthogonalLoop=1;jettySize=auto;html=1;" edge="1" parent="1" source="c2nRYrLW-MGsJN68Fn51-4" target="i3hiYTmnn7HbUoD9lcYK-66">
          <mxGeometry relative="1" as="geometry" />
        </mxCell>
        <mxCell id="c2nRYrLW-MGsJN68Fn51-4" value="Aktviert LoRa-Modul" style="rounded=0;whiteSpace=wrap;html=1;" vertex="1" parent="1">
          <mxGeometry x="53.72000000000003" y="620" width="120" height="60" as="geometry" />
        </mxCell>
        <mxCell id="c2nRYrLW-MGsJN68Fn51-7" value="" style="edgeStyle=orthogonalEdgeStyle;rounded=0;orthogonalLoop=1;jettySize=auto;html=1;" edge="1" parent="1" source="c2nRYrLW-MGsJN68Fn51-5" target="c2nRYrLW-MGsJN68Fn51-6">
          <mxGeometry relative="1" as="geometry" />
        </mxCell>
        <mxCell id="c2nRYrLW-MGsJN68Fn51-12" style="edgeStyle=orthogonalEdgeStyle;rounded=0;orthogonalLoop=1;jettySize=auto;html=1;entryX=0.5;entryY=0;entryDx=0;entryDy=0;" edge="1" parent="1" source="c2nRYrLW-MGsJN68Fn51-5" target="c2nRYrLW-MGsJN68Fn51-1">
          <mxGeometry relative="1" as="geometry" />
        </mxCell>
        <mxCell id="c2nRYrLW-MGsJN68Fn51-5" value="Feuchtigkeit &amp;lt; 70" style="rhombus;whiteSpace=wrap;html=1;" vertex="1" parent="1">
          <mxGeometry x="205" y="400" width="120" height="80" as="geometry" />
        </mxCell>
        <mxCell id="c2nRYrLW-MGsJN68Fn51-11" style="edgeStyle=orthogonalEdgeStyle;rounded=0;orthogonalLoop=1;jettySize=auto;html=1;entryX=0;entryY=0.5;entryDx=0;entryDy=0;" edge="1" parent="1" source="c2nRYrLW-MGsJN68Fn51-6" target="i3hiYTmnn7HbUoD9lcYK-53">
          <mxGeometry relative="1" as="geometry" />
        </mxCell>
        <mxCell id="c2nRYrLW-MGsJN68Fn51-6" value="Pumpe Einschalten&amp;nbsp;&lt;br&gt;für 2 Sekunden" style="rounded=0;whiteSpace=wrap;html=1;" vertex="1" parent="1">
          <mxGeometry x="205.00000000000009" y="500" width="120" height="40" as="geometry" />
        </mxCell>
        <mxCell id="c2nRYrLW-MGsJN68Fn51-8" value="Ja" style="text;html=1;align=center;verticalAlign=middle;resizable=0;points=[];autosize=1;strokeColor=none;fillColor=none;" vertex="1" parent="1">
          <mxGeometry x="275.0000000000001" y="470" width="40" height="30" as="geometry" />
        </mxCell>
        <mxCell id="c2nRYrLW-MGsJN68Fn51-13" value="Nein" style="text;html=1;align=center;verticalAlign=middle;resizable=0;points=[];autosize=1;strokeColor=none;fillColor=none;" vertex="1" parent="1">
          <mxGeometry x="105.32" y="340" width="50" height="30" as="geometry" />
        </mxCell>
        <mxCell id="c2nRYrLW-MGsJN68Fn51-14" value="Nein" style="text;html=1;align=center;verticalAlign=middle;resizable=0;points=[];autosize=1;strokeColor=none;fillColor=none;" vertex="1" parent="1">
          <mxGeometry x="180" y="408" width="50" height="30" as="geometry" />
        </mxCell>
      </root>
    </mxGraphModel>
  </diagram>
</mxfile>
